<svg xmlns="http://www.w3.org/2000/svg" width="920" height="620" viewBox="0 0 920 620" font-family="Segoe UI, Helvetica, Arial, sans-serif"><rect width="920" height="620" fill="#f8fafc"/><text x="20" y="34" font-size="22" font-weight="800" fill="#0f172a">Projected Ecosystem Performance by User Tier</text><text x="20" y="56" font-size="13" fill="#475569">Little&#39;s-law concurrency &#183; 1.3 RPS/user &#183; 2x peak &#183; 940 RPS/pod @ p95 6.3 ms (measured) &#183; HPA 3-30 pods/service &#183; ~80% CDN offload on catalog reads</text><g transform="translate(20,70)"><rect x="0" y="0" width="430" height="230" rx="10" fill="#ffffff" stroke="#e2e8f0"/><text x="14" y="22" font-size="14" font-weight="700" fill="#0f172a">Concurrent users</text><rect x="14.0" y="198.0" width="90.0" height="2.0" rx="4" fill="#2563eb"/><text x="59.0" y="192.0" font-size="11" text-anchor="middle" fill="#0f172a" font-weight="600">0.31</text><text x="59.0" y="220.0" font-size="11" text-anchor="middle" fill="#475569">10 users</text><rect x="118.0" y="198.0" width="90.0" height="2.0" rx="4" fill="#2563eb"/><text x="163.0" y="192.0" font-size="11" text-anchor="middle" fill="#0f172a" font-weight="600">3.12</text><text x="163.0" y="220.0" font-size="11" text-anchor="middle" fill="#475569">100 users</text><rect x="222.0" y="198.0" width="90.0" height="2.0" rx="4" fill="#2563eb"/><text x="267.0" y="192.0" font-size="11" text-anchor="middle" fill="#0f172a" font-weight="600">31.25</text><text x="267.0" y="220.0" font-size="11" text-anchor="middle" fill="#475569">1k users</text><rect x="326.0" y="34.0" width="90.0" height="166.0" rx="4" fill="#2563eb"/><text x="371.0" y="28.0" font-size="11" text-anchor="middle" fill="#0f172a" font-weight="600">31.2k</text><text x="371.0" y="220.0" font-size="11" text-anchor="middle" fill="#475569">1M users</text><text x="418" y="22" font-size="10" text-anchor="end" fill="#94a3b8">count</text></g><g transform="translate(470,70)"><rect x="0" y="0" width="430" height="230" rx="10" fill="#ffffff" stroke="#e2e8f0"/><text x="14" y="22" font-size="14" font-weight="700" fill="#0f172a">Peak aggregate RPS</text><rect x="14.0" y="198.0" width="90.0" height="2.0" rx="4" fill="#7c3aed"/><text x="59.0" y="192.0" font-size="11" text-anchor="middle" fill="#0f172a" font-weight="600">0.81</text><text x="59.0" y="220.0" font-size="11" text-anchor="middle" fill="#475569">10 users</text><rect x="118.0" y="198.0" width="90.0" height="2.0" rx="4" fill="#7c3aed"/><text x="163.0" y="192.0" font-size="11" text-anchor="middle" fill="#0f172a" font-weight="600">8.12</text><text x="163.0" y="220.0" font-size="11" text-anchor="middle" fill="#475569">100 users</text><rect x="222.0" y="198.0" width="90.0" height="2.0" rx="4" fill="#7c3aed"/><text x="267.0" y="192.0" font-size="11" text-anchor="middle" fill="#0f172a" font-weight="600">81.25</text><text x="267.0" y="220.0" font-size="11" text-anchor="middle" fill="#475569">1k users</text><rect x="326.0" y="34.0" width="90.0" height="166.0" rx="4" fill="#7c3aed"/><text x="371.0" y="28.0" font-size="11" text-anchor="middle" fill="#0f172a" font-weight="600">81.2k</text><text x="371.0" y="220.0" font-size="11" text-anchor="middle" fill="#475569">1M users</text><text x="418" y="22" font-size="10" text-anchor="end" fill="#94a3b8">req/s</text></g><g transform="translate(20,320)"><rect x="0" y="0" width="430" height="230" rx="10" fill="#ffffff" stroke="#e2e8f0"/><text x="14" y="22" font-size="14" font-weight="700" fill="#0f172a">Total pods at peak</text><rect x="14.0" y="142.9" width="90.0" height="57.1" rx="4" fill="#0891b2"/><text x="59.0" y="136.9" font-size="11" text-anchor="middle" fill="#0f172a" font-weight="600">21</text><text x="59.0" y="220.0" font-size="11" text-anchor="middle" fill="#475569">10 users</text><rect x="118.0" y="142.9" width="90.0" height="57.1" rx="4" fill="#0891b2"/><text x="163.0" y="136.9" font-size="11" text-anchor="middle" fill="#0f172a" font-weight="600">21</text><text x="163.0" y="220.0" font-size="11" text-anchor="middle" fill="#475569">100 users</text><rect x="222.0" y="142.9" width="90.0" height="57.1" rx="4" fill="#0891b2"/><text x="267.0" y="136.9" font-size="11" text-anchor="middle" fill="#0f172a" font-weight="600">21</text><text x="267.0" y="220.0" font-size="11" text-anchor="middle" fill="#475569">1k users</text><rect x="326.0" y="34.0" width="90.0" height="166.0" rx="4" fill="#0891b2"/><text x="371.0" y="28.0" font-size="11" text-anchor="middle" fill="#0f172a" font-weight="600">61</text><text x="371.0" y="220.0" font-size="11" text-anchor="middle" fill="#475569">1M users</text><text x="418" y="22" font-size="10" text-anchor="end" fill="#94a3b8">k8s pods</text></g><g transform="translate(470,320)"><rect x="0" y="0" width="430" height="230" rx="10" fill="#ffffff" stroke="#e2e8f0"/><text x="14" y="22" font-size="14" font-weight="700" fill="#0f172a">p95 latency</text><rect x="14.0" y="34.0" width="90.0" height="166.0" rx="4" fill="#16a34a"/><text x="59.0" y="28.0" font-size="11" text-anchor="middle" fill="#0f172a" font-weight="600">6.3</text><text x="59.0" y="220.0" font-size="11" text-anchor="middle" fill="#475569">10 users</text><rect x="118.0" y="34.0" width="90.0" height="166.0" rx="4" fill="#16a34a"/><text x="163.0" y="28.0" font-size="11" text-anchor="middle" fill="#0f172a" font-weight="600">6.3</text><text x="163.0" y="220.0" font-size="11" text-anchor="middle" fill="#475569">100 users</text><rect x="222.0" y="34.0" width="90.0" height="166.0" rx="4" fill="#16a34a"/><text x="267.0" y="28.0" font-size="11" text-anchor="middle" fill="#0f172a" font-weight="600">6.3</text><text x="267.0" y="220.0" font-size="11" text-anchor="middle" fill="#475569">1k users</text><rect x="326.0" y="34.0" width="90.0" height="166.0" rx="4" fill="#16a34a"/><text x="371.0" y="28.0" font-size="11" text-anchor="middle" fill="#0f172a" font-weight="600">6.3</text><text x="371.0" y="220.0" font-size="11" text-anchor="middle" fill="#475569">1M users</text><text x="418" y="22" font-size="10" text-anchor="end" fill="#94a3b8">ms (measured)</text></g><text x="20" y="612" font-size="11" fill="#94a3b8">Source: docs/scalability.txt measured baseline &#183; generated by scripts/capacity_projection.py</text></svg>