<svg xmlns="http://www.w3.org/2000/svg" viewBox="0 0 200 360" role="img" aria-label="Salareen Bayon Buddy — Ukraine">
  <defs>
    <linearGradient id="bg" x1="0" y1="0" x2="0" y2="1">
      <stop offset="0%" stop-color="#0b1020" stop-opacity="0"/>
      <stop offset="100%" stop-color="#0b1020" stop-opacity="0.15"/>
    </linearGradient>
    <linearGradient id="robe" x1="0" y1="0" x2="1" y2="1">
      <stop offset="0%" stop-color="#2563eb"/>
      <stop offset="100%" stop-color="#facc15"/>
    </linearGradient>
  </defs>
  <rect width="200" height="360" fill="url(#bg)"/>
  <!-- Bodhi leaf -->
  <path d="M148 250 C170 220 185 195 175 170 C165 150 140 155 128 175 C116 195 125 230 148 250 Z" fill="#16a34a" opacity="0.9"/>
  <path d="M128 175 C135 190 140 210 148 250" fill="none" stroke="#065f46" stroke-width="2"/>
  <!-- S-curve body / robe -->
  <path d="M72 150 C55 190 58 240 78 280 C95 312 118 328 128 340 C138 328 158 310 170 270 C182 230 175 190 158 150 Z" fill="url(#robe)"/>
  <!-- Cultural band -->
  <rect x="68" y="248" width="120" height="18" rx="6" fill="#facc15" opacity="0.85"/>
  <text x="128" y="261" text-anchor="middle" font-size="8" fill="#fff" font-family="sans-serif">vyshyvanka</text>
  <!-- Face (Bayon serene smile) -->
  <ellipse cx="128" cy="108" rx="58" ry="62" fill="#ddb892"/>
  <ellipse cx="128" cy="112" rx="52" ry="54" fill="#ddb892" opacity="0.95"/>
  <!-- Closed serene eyes -->
  <path d="M96 104 Q108 98 120 104" fill="none" stroke="#5c3d2e" stroke-width="3" stroke-linecap="round"/>
  <path d="M136 104 Q148 98 160 104" fill="none" stroke="#5c3d2e" stroke-width="3" stroke-linecap="round"/>
  <!-- Gentle smile -->
  <path d="M108 128 Q128 138 148 128" fill="none" stroke="#5c3d2e" stroke-width="3" stroke-linecap="round"/>
  <!-- Headpiece hint -->
  <text x="128" y="58" text-anchor="middle" font-size="9" fill="#facc15" font-family="sans-serif">wreath</text>
  <!-- Gold S medallion -->
  <circle cx="128" cy="210" r="22" fill="#fbbf24" stroke="#b45309" stroke-width="2"/>
  <text x="128" y="217" text-anchor="middle" font-size="22" font-weight="700" fill="#78350f" font-family="Georgia, serif">S</text>
  <!-- Locale badge -->
  <rect x="8" y="8" width="44" height="20" rx="6" fill="#2563eb" opacity="0.9"/>
  <text x="30" y="22" text-anchor="middle" font-size="11" fill="#fff" font-family="sans-serif">UK</text>
</svg>
