<?xml version="1.0" encoding="UTF-8"?>
<svg xmlns="http://www.w3.org/2000/svg" viewBox="0 0 128 128" role="img" width="128" height="128">

<defs><linearGradient id="g" x1="0" y1="0" x2="1" y2="1"><stop offset="0%" stop-color="#e2e8f0"/><stop offset="100%" stop-color="#94a3b8"/></linearGradient></defs><circle cx="64" cy="64" r="64" fill="url(#g)"/>
<!-- hair back -->
<ellipse cx="64" cy="58" rx="42" ry="46" fill="#64748b"/>
<!-- shoulders -->
<path d="M20 128c8-22 28-34 44-34s36 12 44 34" fill="#1e293b"/>
<!-- neck -->
<rect x="54" y="92" width="20" height="16" rx="6" fill="#ddb892"/>
<!-- face -->
<ellipse cx="64" cy="66" rx="30" ry="34" fill="#ddb892"/>
<!-- ears -->
<ellipse cx="33" cy="70" rx="6" ry="8" fill="#ddb892"/>
<ellipse cx="95" cy="70" rx="6" ry="8" fill="#ddb892"/>

<!-- brows -->
<path d="M42 54q8-6 16 0" fill="none" stroke="#64748b" stroke-width="2.2" stroke-linecap="round"/>
<path d="M70 54q8-6 16 0" fill="none" stroke="#64748b" stroke-width="2.2" stroke-linecap="round"/>
<!-- eyes -->
<ellipse cx="50" cy="64" rx="4.2" ry="5" fill="#334155"/>
<ellipse cx="78" cy="64" rx="4.2" ry="5" fill="#334155"/>
<circle cx="51.5" cy="62.5" r="1.3" fill="#fff" opacity="0.9"/>
<circle cx="79.5" cy="62.5" r="1.3" fill="#fff" opacity="0.9"/>
<!-- nose -->
<path d="M64 68v8" fill="none" stroke="#334155" stroke-width="1.6" stroke-linecap="round" opacity="0.45"/>
<!-- blush -->
<ellipse cx="42" cy="76" rx="7" ry="4" fill="#e0a898" opacity="0.45"/>
<ellipse cx="86" cy="76" rx="7" ry="4" fill="#e0a898" opacity="0.45"/>

<!-- smile -->
<path d="M52 84q12 10 24 0" fill="none" stroke="#a86a6a" stroke-width="2.4" stroke-linecap="round"/>


<!-- hair front fringe for non-beanie -->
<path d="M34 48c10 14 20 8 30 2 10 6 20 12 30-2-8-18-52-18-60 0z" fill="#64748b" opacity="0.95"/>

</svg>
