<?xml version="1.0" encoding="UTF-8"?>
<!--
  AI Classroom horizontal wordmark.
  The minimalist mark + "AI Classroom" set in a clean geometric sans
  (system stack so we don't ship a font file). currentColor for theming.
-->
<svg xmlns="http://www.w3.org/2000/svg" viewBox="0 0 920 200" role="img"
     aria-label="AI Classroom">
  <g fill="currentColor">
    <g transform="translate(0,0) scale(0.78125)">
      <path d="M 128 40
               L 232 96
               L 128 152
               L 24  96
               Z"/>
      <path d="M 128 130
               C 168 138, 198 162, 206 196
               C 212 222, 188 240, 162 230
               C 142 222, 130 202, 134 182
               C 138 168, 152 162, 164 168
               C 176 174, 178 192, 168 198
               C 162 202, 154 200, 152 194
               L 138 194
               C 142 214, 168 222, 184 212
               C 200 200, 198 178, 184 168
               C 168 156, 144 154, 128 158
               Z"/>
    </g>
    <text x="220" y="132" font-family="'Noto Sans', 'Inter', 'Segoe UI', 'Helvetica Neue', Arial, system-ui, sans-serif"
          font-size="92" font-weight="700" letter-spacing="-2">AI Classroom</text>
  </g>
</svg>
