<?xml version="1.0" encoding="UTF-8"?>
<svg xmlns="http://www.w3.org/2000/svg" viewBox="0 0 256 256" role="img" aria-label="Salareen">
  <circle cx="128" cy="128" r="106" stroke-width="11" stroke="currentColor" fill="none"/>
  <!-- S, shifted down to leave room for the cap above -->
  <path d="M 174 124
           C 174 110, 154 102, 128 102
           C 102 102, 86 112, 86 128
           C 86 144, 108 150, 128 156
           C 148 162, 170 168, 170 184
           C 170 200, 152 210, 128 210
           C 106 210, 88 202, 84 192"
        stroke-width="20" stroke="currentColor" fill="none"
        stroke-linecap="round" stroke-linejoin="round"/>
  <g fill="currentColor">
    <!-- Mortarboard: rhombus board on a small base -->
    <path d="M 128 50 L 192 70 L 128 90 L 64 70 Z"/>
    <rect x="116" y="88" width="24" height="6"/>
    <!-- Tassel: hangs from the centre, with a small bob at the end -->
    <path d="M 128 90 C 132 96, 158 102, 162 112" stroke="currentColor"
          stroke-width="6" fill="none" stroke-linecap="round"/>
    <circle cx="164" cy="116" r="6"/>
  </g>
</svg>