<?xml version="1.0" encoding="UTF-8"?>
<svg xmlns="http://www.w3.org/2000/svg" viewBox="0 0 256 256" role="img" aria-label="Salareen">
  <g fill="none" stroke="currentColor" stroke-linecap="round" stroke-linejoin="round">
    <circle cx="128" cy="128" r="106" stroke-width="11" stroke="currentColor" fill="none"/>
  </g>
  <path d="M 174 96
             C 174 80, 154 70, 128 70
             C 102 70, 86 82, 86 100
             C 86 118, 108 124, 128 130
             C 148 136, 170 142, 170 162
             C 170 180, 152 192, 128 192
             C 106 192, 88 184, 84 172"
          stroke-width="22" stroke="currentColor" fill="none"
          stroke-linecap="round" stroke-linejoin="round"/>
  <g fill="currentColor">
    <!-- Left hand: rounded fingers + palm -->
    <path d="M 38 128
             C 30 116, 30 96, 40 88
             C 50 84, 56 96, 56 110
             C 56 124, 50 142, 42 144
             C 36 144, 36 134, 38 128 Z"/>
    <!-- Right hand mirrored -->
    <path d="M 218 128
             C 226 116, 226 96, 216 88
             C 206 84, 200 96, 200 110
             C 200 124, 206 142, 214 144
             C 220 144, 220 134, 218 128 Z"/>
  </g>
</svg>