<?xml version="1.0" encoding="UTF-8"?>
<svg xmlns="http://www.w3.org/2000/svg" viewBox="0 0 256 256" role="img" aria-label="Salareen">
  <g fill="none" stroke="currentColor" stroke-linecap="round" stroke-linejoin="round">
    <circle cx="128" cy="128" r="106" stroke-width="11" stroke="currentColor" fill="none"/>
  </g>
  <path d="M 174 96
             C 174 80, 154 70, 128 70
             C 102 70, 86 82, 86 100
             C 86 118, 108 124, 128 130
             C 148 136, 170 142, 170 162
             C 170 180, 152 192, 128 192
             C 106 192, 88 184, 84 172"
          stroke-width="22" stroke="currentColor" fill="none"
          stroke-linecap="round" stroke-linejoin="round"/>
  <g fill="none" stroke="currentColor" stroke-width="10" stroke-linecap="round" stroke-linejoin="round">
    <!-- Left naga curl: tight spiral up-and-outward (serpent finial) -->
    <path d="M 60 64
             C 60 50, 74 48, 76 60
             C 78 70, 64 74, 60 66"/>
    <!-- Right naga curl mirrored -->
    <path d="M 196 64
             C 196 50, 182 48, 180 60
             C 178 70, 192 74, 196 66"/>
  </g>
</svg>